<svg width="800" height="800" viewBox="0 0 800 800" fill="none" xmlns="http://www.w3.org/2000/svg">
<g clip-path="url(#clip0_2005_106)">
<path d="M355.614 340.611L385.595 434.503H287.741L317.155 340.611C323.945 317.986 329.598 291.403 335.252 269.344H336.383C342.041 291.405 348.259 317.42 355.614 340.611ZM799.219 133.855V666.147C799.219 739.338 739.336 799.22 666.145 799.22H133.855C60.6641 799.219 0.78125 739.336 0.78125 666.145V133.855C0.78125 60.6641 60.6641 0.78125 133.855 0.78125H666.147C739.336 0.78125 799.219 60.6641 799.219 133.855ZM506.634 595.133L382.761 213.919H293.964L171.794 595.133H243.627L276.434 487.102H397.473L431.977 595.133H506.634ZM624.25 319.683H554.112V595.133H624.25V319.683ZM628.206 242.762C627.641 221.269 612.938 204.869 589.18 204.869C565.989 204.869 550.155 221.269 550.155 242.762C550.155 263.692 565.423 280.092 588.614 280.092C612.936 280.091 628.206 263.691 628.206 242.762Z" fill="#214C9B"/>
</g>
<defs>
<clipPath id="clip0_2005_106">
<rect width="800" height="800" fill="white"/>
</clipPath>
</defs>
</svg>
