<svg width="800" height="800" viewBox="0 0 800 800" fill="none" xmlns="http://www.w3.org/2000/svg">
<path opacity="0.6" d="M388.89 66.667H277.778C216.413 66.667 166.667 116.413 166.667 177.778C166.667 239.143 216.413 288.889 277.778 288.889H388.89V66.667Z" fill="#214C9B"/>
<path opacity="0.4" d="M388.89 288.884H277.778C216.413 288.884 166.667 338.63 166.667 399.994C166.667 461.36 216.413 511.107 277.778 511.107H388.89V288.884Z" fill="#214C9B"/>
<path d="M611.09 399.994C611.09 461.36 561.343 511.107 499.976 511.107C438.613 511.107 388.866 461.36 388.866 399.994C388.866 338.63 438.613 288.884 499.976 288.884C561.343 288.884 611.09 338.63 611.09 399.994Z" fill="#214C9B"/>
<path opacity="0.2" d="M277.778 511.116H388.89V622.226C388.89 683.593 339.144 733.34 277.778 733.34C216.413 733.34 166.667 683.593 166.667 622.226C166.667 560.863 216.413 511.116 277.778 511.116Z" fill="#214C9B"/>
<path opacity="0.8" d="M388.866 66.667H499.976C561.343 66.667 611.09 116.413 611.09 177.778C611.09 239.143 561.343 288.889 499.976 288.889H388.866V66.667Z" fill="#214C9B"/>
</svg>
