<svg width="800" height="800" viewBox="0 0 800 800" fill="none" xmlns="http://www.w3.org/2000/svg">
<g clip-path="url(#clip0_2005_103)">
<path d="M527.817 418.947C528.955 424.6 529.513 431.391 529.513 437.05V478.336C529.513 485.692 528.955 492.477 527.252 498.7C520.469 528.681 495.581 547.906 467.298 547.906C423.186 547.906 398.295 511.144 398.295 460.805C398.295 409.331 423.186 369.741 467.863 369.741C499.538 369.741 521.597 391.8 527.817 418.947ZM799.219 133.855V666.147C799.219 739.338 739.336 799.22 666.145 799.22H133.855C60.6641 799.219 0.78125 739.336 0.78125 666.145V133.855C0.78125 60.6641 60.6641 0.78125 133.855 0.78125H666.147C739.336 0.78125 799.219 60.6641 799.219 133.855ZM268.22 216.462H198.653V597.68H268.22V216.462ZM601.35 597.68C600.213 579.013 599.083 548.473 599.083 520.195V196.098H529.513V352.206H528.381C515.945 331.845 488.791 316.008 450.897 316.008C384.72 316.008 327.028 370.872 327.592 463.067C327.592 547.908 379.628 603.898 445.236 603.898C485.391 603.898 518.764 584.672 535.17 554.127H536.302L539.128 597.68H601.35Z" fill="#214C9B"/>
</g>
<defs>
<clipPath id="clip0_2005_103">
<rect width="800" height="800" fill="white"/>
</clipPath>
</defs>
</svg>
