<svg width="800" height="800" viewBox="0 0 800 800" fill="none" xmlns="http://www.w3.org/2000/svg">
<g clip-path="url(#clip0_2005_86)">
<path d="M666.145 0.78125H133.855C60.6641 0.78125 0.78125 60.6641 0.78125 133.855V666.147C0.78125 739.338 60.6641 799.22 133.855 799.22H666.147C739.338 799.22 799.22 739.338 799.22 666.147V133.855C799.219 60.6641 739.336 0.78125 666.145 0.78125ZM383.327 407.069C355.614 434.781 312.059 447.795 262.853 447.795C249.844 447.795 237.967 447.225 228.916 445.528V589.192H159.917V213.067C184.803 208.544 219.306 205.147 266.245 205.147C317.155 205.147 354.484 215.894 378.806 236.258C401.431 254.925 416.134 284.9 416.134 320.533C416.133 356.733 404.822 386.706 383.327 407.069ZM528.095 594.853C494.723 594.853 464.748 586.933 444.386 575.619L457.959 525.281C473.795 534.897 503.775 545.08 528.661 545.08C559.2 545.08 572.78 532.636 572.78 514.534C572.78 495.873 561.469 486.255 527.53 474.378C473.794 455.711 451.177 426.302 451.741 394.061C451.741 345.419 491.897 307.525 555.809 307.525C586.355 307.525 612.937 315.445 628.77 323.925L615.197 373.133C603.319 366.348 581.258 357.297 556.939 357.297C532.052 357.297 518.478 369.175 518.478 386.141C518.478 403.678 531.488 412.164 566.556 424.606C616.328 442.703 639.519 468.155 640.084 508.883C640.083 558.655 601.059 594.853 528.095 594.853ZM346.563 323.359C346.563 368.044 314.886 393.495 262.853 393.495C248.714 393.495 237.402 392.93 228.916 390.669V261.709C236.272 260.014 249.845 258.317 269.078 258.317C317.155 258.317 346.563 280.942 346.563 323.359Z" fill="#214C9B"/>
</g>
<defs>
<clipPath id="clip0_2005_86">
<rect width="800" height="800" fill="white"/>
</clipPath>
</defs>
</svg>
