<svg width="800" height="800" viewBox="0 0 800 800" fill="none" xmlns="http://www.w3.org/2000/svg">
<g clip-path="url(#clip0_2005_28)">
<path d="M400 800C620.914 800 800 620.914 800 400C800 179.086 620.914 0 400 0C179.086 0 0 179.086 0 400C0 620.914 179.086 800 400 800Z" fill="#214C9B"/>
<path d="M279.689 381.42C279.689 369.297 267.884 356.428 247.441 356.428C224.491 356.428 199.281 373.235 195.432 406.754C191.497 440.613 212.601 455.664 233.822 455.664C255.044 455.664 266.231 447.383 277.631 436.356C267.83 424.061 255.236 429.756 252.751 431.033C248.737 433.262 244.194 434.365 239.602 434.227C231.391 434.227 223.02 430.544 223.02 415.248C275.668 410.011 279.689 393.555 279.689 381.42ZM253.636 383.422C253.306 387.179 251.791 393.619 225.163 397.259C230.773 377.365 241.501 375.853 246.438 375.853C247.429 375.813 248.417 375.984 249.336 376.356C250.255 376.728 251.084 377.291 251.766 378.009C252.449 378.727 252.97 379.582 253.295 380.518C253.619 381.453 253.739 382.447 253.647 383.432L253.636 383.422ZM164.516 386.679C164.516 386.679 153.213 422.124 152.285 424.998C151.965 422.05 143.647 358.429 143.647 358.429C124.387 358.429 114.086 372.139 108.637 386.604C108.637 386.604 94.9012 422.135 93.7068 425.147C93.6215 422.39 91.574 387.03 91.574 387.03C90.4009 369.307 74.1488 358.525 61 358.525L76.9108 454.919C97.098 454.834 107.986 441.209 113.681 426.744C113.681 426.744 125.827 395.396 126.328 393.97C126.414 395.311 135.041 454.919 135.041 454.919C155.303 454.919 166.201 442.146 172.056 428.17L200.444 358.535C180.523 358.514 169.966 372.149 164.527 386.689L164.516 386.679ZM354.06 356.3C341.583 356.3 332.028 363.07 323.987 373.022V372.937L331.186 315C314.603 315 301.113 329.38 298.522 350.775L285.959 454.185C295.557 454.185 305.645 451.428 311.084 444.403C313.726 447.979 317.189 450.87 321.182 452.833C325.176 454.796 329.583 455.775 334.033 455.686C362.005 455.686 381.19 423.252 381.19 392.82C381.03 365.039 367.593 356.3 354.06 356.3ZM351.469 406.041C348.536 423.008 339.077 434.546 329.949 434.546C320.82 434.546 316.8 430.448 316.8 430.448C318.559 415.546 319.647 406.456 322.996 398.6C326.344 390.745 334.3 378.206 342.596 378.206C350.712 378.163 354.402 388.946 351.469 405.998V406.041ZM451.05 358.556H431.578L431.663 357.556C433.007 344.847 436.014 338.162 445.985 337.076C452.767 336.406 455.785 332.893 456.542 329.05C457.129 326.038 458.974 315.596 458.974 315.596C419.772 315.341 407.466 332.233 404.278 357.982L404.192 358.567H403.776C397.378 358.567 390.372 365.752 389.198 374.874L388.783 378.216H401.846L390.873 468.693L387.524 484.915C387.94 484.915 388.441 485 388.868 485C407.21 484.329 418.941 469.864 421.532 448.884L430.063 378.238H436.174C442.199 378.238 449.237 372.224 450.496 362.186L451.05 358.556ZM552.562 356.885C530.029 356.885 508.754 373.437 502.227 399.462C495.701 425.488 505.576 456.229 538.741 456.229C571.907 456.229 590.921 424.21 590.921 397.546C590.921 370.978 572.92 356.843 552.562 356.843V356.885ZM561.69 405.21C560.517 416.994 555.292 434.887 541.087 434.887C526.883 434.887 528.77 413.992 530.199 404.018C531.703 393.374 537.664 378.27 550.461 378.27C561.946 378.248 563.034 391.873 561.68 405.168L561.69 405.21ZM702.233 386.689C702.233 386.689 690.929 422.135 690.001 425.009C689.67 421.996 681.374 358.376 681.374 358.376C662.114 358.376 651.813 372.085 646.363 386.551C646.363 386.551 632.628 422.082 631.434 425.094C631.348 422.337 629.301 386.977 629.301 386.977C628.128 369.254 611.876 358.471 598.727 358.471L614.552 454.866C634.739 454.781 645.628 441.156 651.322 426.691C651.322 426.691 663.469 395.343 663.884 393.917C664.055 395.258 672.597 454.866 672.597 454.866C692.859 454.866 703.758 442.093 709.612 428.117L738 358.482C718.143 358.514 707.597 372.149 702.233 386.689ZM469.478 315.543L453.066 447.724L449.707 464.02C450.122 464.02 450.624 464.105 451.05 464.105C468.721 463.85 481.283 448.384 483.629 428.905L493.099 353.107C495.946 329.923 482.125 315.543 469.478 315.543Z" fill="#FAEAF3"/>
</g>
<defs>
<clipPath id="clip0_2005_28">
<rect width="800" height="800" fill="white"/>
</clipPath>
</defs>
</svg>
