<svg width="800" height="800" viewBox="0 0 800 800" fill="none" xmlns="http://www.w3.org/2000/svg">
<g clip-path="url(#clip0_2005_23)">
<path fill-rule="evenodd" clip-rule="evenodd" d="M751 208.086C752.72 220.846 753.68 234.479 753.68 249.199C753.68 319.519 747.16 323.482 601.08 745.762C720 676.402 800 547.56 800 400C800 330.44 782.24 265.046 751 208.086ZM407.04 435L287 783.711C368 807.551 453.84 805.123 532.84 777.363C531.76 775.643 530.8 773.796 530 771.836L407.04 435ZM670.04 379.805C670.04 330.365 652.28 296.113 637.04 269.473C616.8 236.513 597.76 208.644 597.76 175.684C597.76 138.924 625.68 104.688 664.96 104.688C666.72 104.688 668.4 104.92 670.12 105C598.96 39.8 504.16 0 400 0C260.28 0 137.32 71.6734 65.8002 180.273C91.2802 181.073 125.48 181.403 198.16 175.723C219.72 174.443 222.24 206.113 200.72 208.633C200.72 208.633 179.04 211.2 154.92 212.48L300.6 645.762L388.12 383.203L325.8 212.441C304.28 211.201 283.88 208.633 283.88 208.633C262.32 207.353 264.84 174.404 286.4 175.684C369.08 182.044 411.4 182.524 498.36 175.684C519.92 174.404 522.48 206.073 500.92 208.633C500.92 208.633 479.2 211.201 455.12 212.441L599.68 642.441C656.76 451.721 670.04 419.805 670.04 379.805ZM0 400C0 558.32 92.0001 695.16 225.44 760L34.6399 237.207C12.4399 286.967 0 342 0 400Z" fill="#214C9B"/>
</g>
<defs>
<clipPath id="clip0_2005_23">
<rect width="800" height="800" fill="white"/>
</clipPath>
</defs>
</svg>
